<?xml version="1.0" encoding="UTF-8"?>
<svg width="500" height="500" version="1.1" viewBox="0 0 132.29 132.29" xml:space="preserve" xmlns="http://www.w3.org/2000/svg">
    <path class="UnoptimicedTransforms"
          transform="rotate(-39.7 104.83 66.374)"
          d="m132.36 13.961-18.924 2.9043-25.643 15.234-10.441 12.344-11.291-11.57-26.66-13.373-19.082-1.5508-7.4297 8.748 4.1426 12.965 10.008 20.291 13.242 1.1133-5.1895 6.3535 3.0605 12.801 13.182 14.049 18.064 3.3613 6.6875-11.605 2.207-14.768 0.0059-0.2168 0.02344 0.2168 3.25 14.572 7.4961 11.102 17.779-4.6367 12.148-14.951 2.1426-12.986-5.627-5.9688 13.129-2.0527 8.541-20.949 3.2109-13.229z" />
</svg>
